<svg width="512" height="512" viewBox="0 0 512 512" fill="none" xmlns="http://www.w3.org/2000/svg">
<path d="M472 309.554H435.275C419.27 294.38 398.055 285.922 376 285.922C353.945 285.922 332.73 294.38 316.725 309.554H240C232.433 309.564 225.114 312.25 219.338 317.138C213.561 322.026 209.7 328.799 208.438 336.26L138.717 313.015C133.839 311.39 128.644 310.946 123.56 311.722C118.477 312.498 113.65 314.47 109.478 317.477C105.307 320.484 101.909 324.439 99.566 329.017C97.2227 333.594 96.0005 338.663 96.0003 343.805V344.33C95.9752 349.812 97.3408 355.211 99.9693 360.022C102.598 364.833 106.403 368.899 111.03 371.839L249.9 460.207C258.975 465.969 269.14 469.797 279.761 471.453C290.381 473.11 301.229 472.559 311.627 469.834L433.035 437.883H472C474.122 437.883 476.157 437.041 477.657 435.54C479.157 434.04 480 432.005 480 429.883V317.554C480 315.433 479.157 313.398 477.657 311.898C476.157 310.397 474.122 309.554 472 309.554ZM464 421.883H432C431.313 421.883 430.629 421.972 429.964 422.147L307.55 454.362C299.285 456.525 290.663 456.961 282.221 455.645C273.779 454.328 265.7 451.286 258.485 446.709L119.62 358.341C117.27 356.84 115.338 354.768 114.005 352.318C112.672 349.867 111.983 347.119 112 344.33V343.805C112.006 339.451 113.733 335.275 116.805 332.189C119.878 329.103 124.046 327.357 128.4 327.332C130.187 327.335 131.962 327.626 133.655 328.194L210.425 353.794C212.843 359.648 216.944 364.651 222.21 368.169C227.476 371.687 233.668 373.561 240 373.554H320C322.122 373.554 324.157 372.712 325.657 371.211C327.157 369.711 328 367.676 328 365.554C328 363.433 327.157 361.398 325.657 359.898C324.157 358.397 322.122 357.554 320 357.554H240C236.445 357.56 232.989 356.379 230.18 354.198C227.371 352.018 225.37 348.962 224.493 345.516V345.496C223.895 343.135 223.844 340.668 224.343 338.283C224.843 335.899 225.879 333.66 227.375 331.737C228.87 329.814 230.785 328.257 232.973 327.186C235.161 326.114 237.564 325.556 240 325.554H320C321.051 325.554 322.091 325.348 323.062 324.945C324.032 324.543 324.914 323.954 325.657 323.211L326.467 322.401C339.614 309.283 357.427 301.916 375.999 301.916C394.571 301.916 412.385 309.283 425.531 322.401L426.341 323.211C427.084 323.954 427.967 324.544 428.938 324.946C429.909 325.348 430.949 325.555 432 325.554H464V421.883Z" fill="white"/>
<path d="M133.539 211.06C133.666 211.094 133.794 211.125 133.924 211.153C139.189 212.285 144.56 212.855 149.946 212.853C150.315 212.853 150.684 212.842 151.052 212.837C153.75 218.199 158.098 222.553 163.455 225.258C168.812 227.964 174.897 228.88 180.813 227.869L190.279 226.259C195.82 230.148 202.672 231.691 209.345 230.552L228.483 227.297C230.118 230.249 232.159 232.957 234.545 235.342L292.345 293.142C293.088 293.885 293.97 294.474 294.94 294.877C295.911 295.279 296.951 295.486 298.002 295.486C299.053 295.486 300.093 295.279 301.064 294.877C302.034 294.474 302.916 293.885 303.659 293.142L361.459 235.342C368.211 228.591 372.004 219.433 372.004 209.885C372.004 200.337 368.211 191.18 361.459 184.428C354.707 177.677 345.55 173.884 336.002 173.884C326.454 173.884 317.297 177.677 310.545 184.428L298 196.971L294.617 193.588C300.334 188.603 304.172 181.81 305.493 174.34C306.813 166.87 305.537 159.173 301.875 152.529C302.081 152.051 302.24 151.553 302.349 151.043L305.672 135.61C307.093 128.932 306.947 122.015 305.247 115.402C303.547 108.789 300.338 102.659 295.872 97.4942L266.249 63.3942C262.032 58.5273 256.795 54.6481 250.911 52.0317C245.027 49.4154 238.639 48.1261 232.2 48.2552L111.3 50.5552L11.569 0.840235C10.3493 0.232234 8.99448 -0.0540891 7.63306 0.00842086C6.27165 0.0709308 4.94877 0.480202 3.78991 1.19742C2.63105 1.91463 1.67463 2.91601 1.01136 4.10656C0.348086 5.29712 -3.99812e-05 6.63739 3.444e-09 8.00023V128C7.20991e-05 129.539 0.444084 131.046 1.27879 132.339C2.1135 133.632 3.30347 134.657 4.706 135.29L66.946 163.409L78.965 178.152C92.5361 194.754 111.335 206.264 132.292 210.802C132.708 210.891 133.123 210.978 133.539 211.06ZM169.539 210.316C172.881 209.434 176.158 208.326 179.35 207C179.472 208.606 179.744 210.197 180.162 211.752L178.136 212.097C175.147 212.608 172.075 211.972 169.534 210.316H169.539ZM206.668 214.78C204.794 215.099 202.868 214.861 201.128 214.096C199.388 213.33 197.912 212.07 196.881 210.473C196.056 209.191 195.533 207.739 195.35 206.225C195.168 204.712 195.331 203.177 195.827 201.735C196.349 200.105 197.333 198.662 198.66 197.58L206.333 193.752L226.699 196.237C224.92 200.567 224.004 205.203 224 209.884C224 210.532 224.02 211.178 224.054 211.821L206.668 214.78ZM292.348 213.942C293.091 214.685 293.973 215.274 294.943 215.677C295.914 216.079 296.954 216.286 298.005 216.286C299.056 216.286 300.096 216.079 301.067 215.677C302.037 215.274 302.919 214.685 303.662 213.942L321.862 195.742C323.719 193.885 325.924 192.412 328.351 191.406C330.778 190.401 333.379 189.884 336.005 189.884C338.632 189.884 341.233 190.401 343.66 191.406C346.087 192.412 348.292 193.885 350.149 195.742C352.006 197.6 353.48 199.805 354.485 202.231C355.49 204.658 356.007 207.259 356.007 209.886C356.007 212.512 355.49 215.113 354.485 217.54C353.48 219.967 352.006 222.172 350.149 224.029L298 276.17L245.859 224.03C242.517 220.691 240.466 216.275 240.07 211.567C239.675 206.858 240.96 202.162 243.699 198.312L268.911 201.388C272.409 201.815 275.953 201.687 279.411 201.008L292.348 213.942ZM91.371 168.042L78.162 151.842C77.3796 150.882 76.3843 150.117 75.255 149.607L16 122.836V20.9272L105.918 65.7522C107.077 66.3155 108.351 66.603 109.64 66.5922L232.5 64.2532C232.68 64.2532 232.858 64.2472 233.037 64.2472C237.045 64.2427 241.008 65.101 244.655 66.7639C248.302 68.4268 251.548 70.8552 254.173 73.8842L283.8 107.984C286.642 111.271 288.684 115.172 289.765 119.38C290.847 123.588 290.939 127.989 290.035 132.239L288.508 139.334C285.794 137.893 282.892 136.836 279.887 136.192L265.31 133.053L266.994 125.233C267.441 123.159 267.045 120.992 265.894 119.21C264.743 117.427 262.931 116.175 260.857 115.728C258.783 115.282 256.616 115.677 254.833 116.828C253.051 117.979 251.799 119.791 251.352 121.865L249.668 129.686L238.213 127.219L229.194 104.371C228.415 102.398 226.884 100.814 224.937 99.9697C222.991 99.125 220.789 99.0882 218.815 99.8672C216.841 100.646 215.258 102.177 214.413 104.124C213.569 106.07 213.532 108.273 214.311 110.246L219.411 123.172L202.611 119.555C201.578 119.318 200.509 119.289 199.464 119.468C198.42 119.648 197.422 120.033 196.527 120.602C195.633 121.171 194.861 121.912 194.256 122.781C193.65 123.651 193.223 124.632 193 125.668C192.777 126.704 192.762 127.774 192.956 128.816C193.15 129.858 193.549 130.851 194.13 131.737C194.71 132.623 195.462 133.386 196.339 133.979C197.217 134.573 198.204 134.986 199.243 135.195L276.52 151.834C280.821 152.758 284.6 155.306 287.07 158.946C289.541 162.586 290.512 167.039 289.782 171.377C289.051 175.716 286.676 179.605 283.15 182.236C279.624 184.867 275.22 186.037 270.853 185.502L205.883 177.575C204.326 177.386 202.748 177.658 201.344 178.358L195.187 181.428C195.168 181.435 195.148 181.439 195.129 181.446C193.445 182.055 191.838 182.861 190.343 183.846L176.981 190.511C164.858 196.539 151.066 198.336 137.803 195.616C137.576 195.552 137.346 195.497 137.113 195.453C136.624 195.36 136.135 195.26 135.656 195.153C118.251 191.385 102.638 181.828 91.366 168.042H91.371Z" fill="white"/>
</svg>
