<svg width="369" height="80" viewBox="0 0 369 80" fill="none" xmlns="http://www.w3.org/2000/svg">
<path d="M73.3379 75H64.3242C63.3542 75 62.472 74.8177 61.6777 74.4531C60.8835 74.0885 60.2031 73.5905 59.6367 72.959C59.0768 72.3275 58.6439 71.5853 58.3379 70.7324C58.0319 69.8796 57.8789 68.9681 57.8789 67.998C57.8789 67.0345 58.0319 66.1296 58.3379 65.2832C58.6439 64.4303 59.0768 63.6882 59.6367 63.0566C60.2031 62.4186 60.8835 61.9173 61.6777 61.5527C62.472 61.1816 63.3542 60.9961 64.3242 60.9961H73.3379V62.998H64.3242C63.6341 62.998 63.0124 63.1315 62.459 63.3984C61.9121 63.6589 61.4466 64.0169 61.0625 64.4727C60.6849 64.9219 60.3919 65.4492 60.1836 66.0547C59.9818 66.6602 59.8809 67.3079 59.8809 67.998C59.8809 68.6882 59.9818 69.3392 60.1836 69.9512C60.3919 70.5566 60.6849 71.0872 61.0625 71.543C61.4466 71.9922 61.9121 72.347 62.459 72.6074C63.0124 72.8678 63.6341 72.998 64.3242 72.998H73.3379V75ZM90.909 69.502C90.909 70.2572 90.7658 70.9668 90.4793 71.6309C90.1928 72.2949 89.8022 72.8776 89.3074 73.3789C88.8191 73.8737 88.243 74.2676 87.5789 74.5605C86.9148 74.847 86.2052 74.9935 85.45 75H82.3738C81.6186 74.9935 80.909 74.847 80.2449 74.5605C79.5809 74.2676 79.0014 73.8737 78.5066 73.3789C78.0184 72.8776 77.631 72.2949 77.3445 71.6309C77.0581 70.9668 76.9148 70.2572 76.9148 69.502C76.9148 68.7467 77.0581 68.0371 77.3445 67.373C77.631 66.7025 78.0184 66.1198 78.5066 65.625C79.0014 65.1237 79.5809 64.7298 80.2449 64.4434C80.909 64.1504 81.6186 64.0039 82.3738 64.0039H85.45C85.9513 64.0039 86.4363 64.069 86.9051 64.1992C87.3738 64.3294 87.81 64.515 88.2137 64.7559C88.6173 64.9967 88.9852 65.2865 89.3172 65.625C89.6492 65.957 89.9324 66.3281 90.1668 66.7383C90.4012 67.1419 90.5835 67.5781 90.7137 68.0469C90.8439 68.5156 90.909 69.0007 90.909 69.502ZM88.9168 69.502C88.9168 69.0202 88.8257 68.5677 88.6434 68.1445C88.4611 67.7214 88.2137 67.3535 87.9012 67.041C87.5887 66.722 87.2208 66.4714 86.7977 66.2891C86.381 66.1003 85.9318 66.0026 85.45 65.9961H82.3738C81.8921 66.0026 81.4396 66.1003 81.0164 66.2891C80.5997 66.4714 80.2352 66.722 79.9227 67.041C79.6102 67.3535 79.3628 67.7214 79.1805 68.1445C79.0047 68.5677 78.9168 69.0202 78.9168 69.502C78.9168 69.9837 79.0047 70.4362 79.1805 70.8594C79.3628 71.2826 79.6102 71.6536 79.9227 71.9727C80.2352 72.2852 80.5997 72.5358 81.0164 72.7246C81.4396 72.9069 81.8921 72.998 82.3738 72.998H85.45C85.9318 72.998 86.381 72.9069 86.7977 72.7246C87.2208 72.5358 87.5887 72.2852 87.9012 71.9727C88.2137 71.6536 88.4611 71.2826 88.6434 70.8594C88.8257 70.4362 88.9168 69.9837 88.9168 69.502ZM97.2984 75H95.2965V64.0039H102.796C103.552 64.0039 104.261 64.1504 104.925 64.4434C105.589 64.7298 106.169 65.1237 106.664 65.625C107.158 66.1198 107.549 66.7025 107.836 67.373C108.122 68.0371 108.265 68.7467 108.265 69.502V75H106.263V69.502C106.263 69.0202 106.172 68.5677 105.99 68.1445C105.808 67.7214 105.56 67.3535 105.248 67.041C104.935 66.722 104.567 66.4714 104.144 66.2891C103.727 66.1003 103.278 66.0026 102.796 65.9961H97.2984V75ZM124.645 71.5039C124.645 71.9857 124.554 72.4414 124.371 72.8711C124.189 73.2943 123.939 73.6654 123.62 73.9844C123.307 74.2969 122.936 74.5443 122.506 74.7266C122.083 74.9089 121.631 75 121.149 75H112.643V72.998H121.149C121.351 72.998 121.543 72.959 121.725 72.8809C121.907 72.8027 122.067 72.6953 122.204 72.5586C122.34 72.4219 122.448 72.2656 122.526 72.0898C122.604 71.9076 122.643 71.7122 122.643 71.5039C122.643 71.3021 122.604 71.11 122.526 70.9277C122.448 70.7454 122.34 70.5859 122.204 70.4492C122.067 70.3125 121.907 70.2051 121.725 70.127C121.543 70.0423 121.351 70 121.149 70H115.641C115.224 70 114.834 69.9219 114.469 69.7656C114.105 69.6094 113.786 69.3978 113.512 69.1309C113.245 68.8574 113.034 68.5384 112.877 68.1738C112.721 67.8092 112.643 67.4186 112.643 67.002C112.643 66.5853 112.721 66.1947 112.877 65.8301C113.034 65.4655 113.245 65.1497 113.512 64.8828C113.786 64.6094 114.105 64.3945 114.469 64.2383C114.834 64.082 115.224 64.0039 115.641 64.0039H123.649V65.9961H115.641C115.361 65.9961 115.123 66.0938 114.928 66.2891C114.739 66.4779 114.645 66.7155 114.645 67.002C114.645 67.2819 114.739 67.5195 114.928 67.7148C115.123 67.9036 115.361 67.998 115.641 67.998H121.149C121.631 67.998 122.083 68.0892 122.506 68.2715C122.936 68.4538 123.307 68.7044 123.62 69.0234C123.939 69.3424 124.189 69.7135 124.371 70.1367C124.554 70.5599 124.645 71.0156 124.645 71.5039ZM141.698 67.5C141.698 67.9883 141.607 68.444 141.425 68.8672C141.243 69.2904 140.992 69.6615 140.673 69.9805C140.361 70.293 139.989 70.5404 139.56 70.7227C139.137 70.9049 138.684 70.9961 138.202 70.9961H130.536C130.68 71.2891 130.859 71.5592 131.073 71.8066C131.288 72.054 131.529 72.2656 131.796 72.4414C132.063 72.6172 132.353 72.7539 132.665 72.8516C132.984 72.9492 133.316 72.998 133.661 72.998H140.204V75H133.661C132.906 74.9935 132.196 74.847 131.532 74.5605C130.868 74.2676 130.289 73.8737 129.794 73.3789C129.306 72.8776 128.918 72.2949 128.632 71.6309C128.346 70.9668 128.202 70.2572 128.202 69.502C128.202 68.7467 128.346 68.0371 128.632 67.373C128.918 66.709 129.306 66.1296 129.794 65.6348C130.289 65.1335 130.868 64.7396 131.532 64.4531C132.196 64.1602 132.906 64.0104 133.661 64.0039H138.202C138.684 64.0039 139.137 64.0951 139.56 64.2773C139.989 64.4596 140.361 64.7103 140.673 65.0293C140.992 65.3418 141.243 65.7096 141.425 66.1328C141.607 66.556 141.698 67.0117 141.698 67.5ZM138.202 69.0039C138.404 69.0039 138.596 68.9648 138.779 68.8867C138.961 68.8086 139.12 68.7012 139.257 68.5645C139.394 68.4277 139.501 68.2682 139.579 68.0859C139.657 67.9036 139.696 67.7083 139.696 67.5C139.696 67.2982 139.657 67.1061 139.579 66.9238C139.501 66.7415 139.394 66.582 139.257 66.4453C139.12 66.3086 138.961 66.2012 138.779 66.123C138.596 66.0384 138.404 65.9961 138.202 65.9961H133.661C133.219 65.9961 132.802 66.0742 132.411 66.2305C132.027 66.3867 131.682 66.6016 131.376 66.875C131.077 67.1419 130.826 67.4609 130.624 67.832C130.429 68.1966 130.302 68.5872 130.243 69.0039H138.202ZM156.789 65.9961H149.289C149.081 65.9961 148.885 66.0384 148.703 66.123C148.521 66.2012 148.361 66.3086 148.225 66.4453C148.088 66.582 147.98 66.7415 147.902 66.9238C147.824 67.1061 147.785 67.2982 147.785 67.5V75H145.783V67.5C145.783 67.0117 145.874 66.556 146.057 66.1328C146.239 65.7096 146.49 65.3418 146.809 65.0293C147.128 64.7103 147.499 64.4596 147.922 64.2773C148.345 64.0951 148.801 64.0039 149.289 64.0039H156.789V65.9961ZM173.843 64.0039L167.768 75H165.483L159.448 64.0039H161.782L166.626 72.9199L171.509 64.0039H173.843ZM189.88 75H179.88C179.392 75 178.936 74.9089 178.513 74.7266C178.09 74.5443 177.719 74.2969 177.4 73.9844C177.081 73.6654 176.83 73.2943 176.648 72.8711C176.466 72.4414 176.375 71.9857 176.375 71.5039C176.375 71.0156 176.466 70.5599 176.648 70.1367C176.83 69.7135 177.081 69.3424 177.4 69.0234C177.719 68.7044 178.09 68.4538 178.513 68.2715C178.936 68.0892 179.392 67.998 179.88 67.998H186.873V70H179.88C179.672 70 179.477 70.0423 179.295 70.127C179.112 70.2051 178.953 70.3125 178.816 70.4492C178.679 70.5859 178.572 70.7454 178.494 70.9277C178.416 71.11 178.377 71.3021 178.377 71.5039C178.377 71.7122 178.416 71.9076 178.494 72.0898C178.572 72.2656 178.679 72.4219 178.816 72.5586C178.953 72.6953 179.112 72.8027 179.295 72.8809C179.477 72.959 179.672 72.998 179.88 72.998H187.879V67.5C187.879 67.2982 187.836 67.1061 187.752 66.9238C187.673 66.7415 187.566 66.582 187.429 66.4453C187.293 66.3086 187.133 66.2012 186.951 66.123C186.768 66.0384 186.576 65.9961 186.375 65.9961H178.377V64.0039H186.375C186.863 64.0039 187.319 64.0951 187.742 64.2773C188.165 64.4596 188.536 64.7103 188.855 65.0293C189.174 65.3418 189.425 65.7096 189.607 66.1328C189.789 66.556 189.88 67.0117 189.88 67.5V75ZM198.75 75H196.748V65.9961H193.75V64.0039H196.748V60H198.75V64.0039H205.752V65.9961H198.75V75ZM212.025 61.5039C212.025 61.7122 211.986 61.9076 211.907 62.0898C211.829 62.2656 211.722 62.4219 211.585 62.5586C211.448 62.6953 211.289 62.8027 211.107 62.8809C210.924 62.959 210.732 62.998 210.53 62.998C210.322 62.998 210.127 62.959 209.945 62.8809C209.762 62.8027 209.603 62.6953 209.466 62.5586C209.329 62.4219 209.222 62.2656 209.144 62.0898C209.066 61.9076 209.027 61.7122 209.027 61.5039C209.027 61.3021 209.066 61.11 209.144 60.9277C209.222 60.7454 209.329 60.5859 209.466 60.4492C209.603 60.3125 209.762 60.2051 209.945 60.127C210.127 60.0423 210.322 60 210.53 60C210.732 60 210.924 60.0423 211.107 60.127C211.289 60.2051 211.448 60.3125 211.585 60.4492C211.722 60.5859 211.829 60.7454 211.907 60.9277C211.986 61.11 212.025 61.3021 212.025 61.5039ZM211.527 75H209.525V64.0039H211.527V75ZM229.908 69.502C229.908 70.2572 229.765 70.9668 229.479 71.6309C229.192 72.2949 228.801 72.8776 228.307 73.3789C227.818 73.8737 227.242 74.2676 226.578 74.5605C225.914 74.847 225.204 74.9935 224.449 75H221.373C220.618 74.9935 219.908 74.847 219.244 74.5605C218.58 74.2676 218.001 73.8737 217.506 73.3789C217.018 72.8776 216.63 72.2949 216.344 71.6309C216.057 70.9668 215.914 70.2572 215.914 69.502C215.914 68.7467 216.057 68.0371 216.344 67.373C216.63 66.7025 217.018 66.1198 217.506 65.625C218.001 65.1237 218.58 64.7298 219.244 64.4434C219.908 64.1504 220.618 64.0039 221.373 64.0039H224.449C224.951 64.0039 225.436 64.069 225.904 64.1992C226.373 64.3294 226.809 64.515 227.213 64.7559C227.617 64.9967 227.984 65.2865 228.316 65.625C228.648 65.957 228.932 66.3281 229.166 66.7383C229.4 67.1419 229.583 67.5781 229.713 68.0469C229.843 68.5156 229.908 69.0007 229.908 69.502ZM227.916 69.502C227.916 69.0202 227.825 68.5677 227.643 68.1445C227.46 67.7214 227.213 67.3535 226.9 67.041C226.588 66.722 226.22 66.4714 225.797 66.2891C225.38 66.1003 224.931 66.0026 224.449 65.9961H221.373C220.891 66.0026 220.439 66.1003 220.016 66.2891C219.599 66.4714 219.234 66.722 218.922 67.041C218.609 67.3535 218.362 67.7214 218.18 68.1445C218.004 68.5677 217.916 69.0202 217.916 69.502C217.916 69.9837 218.004 70.4362 218.18 70.8594C218.362 71.2826 218.609 71.6536 218.922 71.9727C219.234 72.2852 219.599 72.5358 220.016 72.7246C220.439 72.9069 220.891 72.998 221.373 72.998H224.449C224.931 72.998 225.38 72.9069 225.797 72.7246C226.22 72.5358 226.588 72.2852 226.9 71.9727C227.213 71.6536 227.46 71.2826 227.643 70.8594C227.825 70.4362 227.916 69.9837 227.916 69.502ZM236.298 75H234.296V64.0039H241.796C242.551 64.0039 243.261 64.1504 243.925 64.4434C244.589 64.7298 245.168 65.1237 245.663 65.625C246.158 66.1198 246.548 66.7025 246.835 67.373C247.121 68.0371 247.264 68.7467 247.264 69.502V75H245.262V69.502C245.262 69.0202 245.171 68.5677 244.989 68.1445C244.807 67.7214 244.559 67.3535 244.247 67.041C243.934 66.722 243.567 66.4714 243.143 66.2891C242.727 66.1003 242.277 66.0026 241.796 65.9961H236.298V75ZM277.563 70.9961C277.563 71.556 277.459 72.0801 277.25 72.5684C277.042 73.0501 276.756 73.4733 276.391 73.8379C276.033 74.196 275.61 74.4792 275.121 74.6875C274.64 74.8958 274.122 75 273.569 75H261.401V72.998H273.569C273.849 72.998 274.109 72.946 274.35 72.8418C274.591 72.7376 274.799 72.5944 274.975 72.4121C275.157 72.2298 275.301 72.0182 275.405 71.7773C275.509 71.5299 275.561 71.2695 275.561 70.9961C275.561 70.7227 275.509 70.4655 275.405 70.2246C275.301 69.9837 275.157 69.7721 274.975 69.5898C274.799 69.4076 274.591 69.2643 274.35 69.1602C274.109 69.056 273.849 69.0039 273.569 69.0039H265.405C264.858 69.0039 264.34 68.8997 263.852 68.6914C263.364 68.4831 262.937 68.1999 262.573 67.8418C262.215 67.4772 261.928 67.0508 261.713 66.5625C261.505 66.0742 261.401 65.5534 261.401 65C261.401 64.4531 261.505 63.9355 261.713 63.4473C261.928 62.959 262.215 62.5358 262.573 62.1777C262.937 61.8132 263.364 61.5267 263.852 61.3184C264.34 61.1035 264.858 60.9961 265.405 60.9961H276.567V62.998H265.405C265.131 62.998 264.871 63.0501 264.623 63.1543C264.383 63.2585 264.171 63.4017 263.989 63.584C263.806 63.7663 263.663 63.9811 263.559 64.2285C263.455 64.4694 263.403 64.7266 263.403 65C263.403 65.2734 263.455 65.5339 263.559 65.7812C263.663 66.0221 263.806 66.2337 263.989 66.416C264.171 66.5983 264.383 66.7415 264.623 66.8457C264.871 66.9499 265.131 67.002 265.405 67.002H273.569C274.122 67.002 274.64 67.1094 275.121 67.3242C275.61 67.5326 276.033 67.819 276.391 68.1836C276.756 68.5417 277.042 68.9648 277.25 69.4531C277.459 69.9349 277.563 70.4492 277.563 70.9961ZM295.173 69.502C295.173 70.2572 295.03 70.9668 294.743 71.6309C294.457 72.2949 294.066 72.8776 293.571 73.3789C293.083 73.8737 292.507 74.2676 291.843 74.5605C291.179 74.847 290.469 74.9935 289.714 75H286.638C285.883 74.9935 285.173 74.847 284.509 74.5605C283.845 74.2676 283.265 73.8737 282.771 73.3789C282.282 72.8776 281.895 72.2949 281.609 71.6309C281.322 70.9668 281.179 70.2572 281.179 69.502C281.179 68.7467 281.322 68.0371 281.609 67.373C281.895 66.7025 282.282 66.1198 282.771 65.625C283.265 65.1237 283.845 64.7298 284.509 64.4434C285.173 64.1504 285.883 64.0039 286.638 64.0039H289.714C290.215 64.0039 290.7 64.069 291.169 64.1992C291.638 64.3294 292.074 64.515 292.478 64.7559C292.881 64.9967 293.249 65.2865 293.581 65.625C293.913 65.957 294.196 66.3281 294.431 66.7383C294.665 67.1419 294.848 67.5781 294.978 68.0469C295.108 68.5156 295.173 69.0007 295.173 69.502ZM293.181 69.502C293.181 69.0202 293.09 68.5677 292.907 68.1445C292.725 67.7214 292.478 67.3535 292.165 67.041C291.853 66.722 291.485 66.4714 291.062 66.2891C290.645 66.1003 290.196 66.0026 289.714 65.9961H286.638C286.156 66.0026 285.704 66.1003 285.28 66.2891C284.864 66.4714 284.499 66.722 284.187 67.041C283.874 67.3535 283.627 67.7214 283.445 68.1445C283.269 68.5677 283.181 69.0202 283.181 69.502C283.181 69.9837 283.269 70.4362 283.445 70.8594C283.627 71.2826 283.874 71.6536 284.187 71.9727C284.499 72.2852 284.864 72.5358 285.28 72.7246C285.704 72.9069 286.156 72.998 286.638 72.998H289.714C290.196 72.998 290.645 72.9069 291.062 72.7246C291.485 72.5358 291.853 72.2852 292.165 71.9727C292.478 71.6536 292.725 71.2826 292.907 70.8594C293.09 70.4362 293.181 69.9837 293.181 69.502ZM310.869 75H304.326C303.571 74.9935 302.861 74.847 302.197 74.5605C301.533 74.2676 300.954 73.8737 300.459 73.3789C299.971 72.8776 299.583 72.2949 299.297 71.6309C299.01 70.9668 298.867 70.2572 298.867 69.502C298.867 68.7467 299.01 68.0371 299.297 67.373C299.583 66.7025 299.971 66.1198 300.459 65.625C300.954 65.1237 301.533 64.7298 302.197 64.4434C302.861 64.1504 303.571 64.0039 304.326 64.0039H310.869V65.9961H304.326C303.844 66.0026 303.392 66.1003 302.969 66.2891C302.552 66.4714 302.188 66.722 301.875 67.041C301.562 67.3535 301.315 67.7214 301.133 68.1445C300.957 68.5677 300.869 69.0202 300.869 69.502C300.869 69.9837 300.957 70.4362 301.133 70.8594C301.315 71.2826 301.562 71.6536 301.875 71.9727C302.188 72.2852 302.552 72.5358 302.969 72.7246C303.392 72.9069 303.844 72.998 304.326 72.998H310.869V75ZM317.757 61.5039C317.757 61.7122 317.718 61.9076 317.639 62.0898C317.561 62.2656 317.454 62.4219 317.317 62.5586C317.18 62.6953 317.021 62.8027 316.839 62.8809C316.656 62.959 316.464 62.998 316.263 62.998C316.054 62.998 315.859 62.959 315.677 62.8809C315.494 62.8027 315.335 62.6953 315.198 62.5586C315.061 62.4219 314.954 62.2656 314.876 62.0898C314.798 61.9076 314.759 61.7122 314.759 61.5039C314.759 61.3021 314.798 61.11 314.876 60.9277C314.954 60.7454 315.061 60.5859 315.198 60.4492C315.335 60.3125 315.494 60.2051 315.677 60.127C315.859 60.0423 316.054 60 316.263 60C316.464 60 316.656 60.0423 316.839 60.127C317.021 60.2051 317.18 60.3125 317.317 60.4492C317.454 60.5859 317.561 60.7454 317.639 60.9277C317.718 61.11 317.757 61.3021 317.757 61.5039ZM317.259 75H315.257V64.0039H317.259V75ZM335.142 67.5C335.142 67.9883 335.051 68.444 334.869 68.8672C334.686 69.2904 334.436 69.6615 334.117 69.9805C333.804 70.293 333.433 70.5404 333.004 70.7227C332.58 70.9049 332.128 70.9961 331.646 70.9961H323.98C324.123 71.2891 324.302 71.5592 324.517 71.8066C324.732 72.054 324.973 72.2656 325.24 72.4414C325.507 72.6172 325.796 72.7539 326.109 72.8516C326.428 72.9492 326.76 72.998 327.105 72.998H333.648V75H327.105C326.35 74.9935 325.64 74.847 324.976 74.5605C324.312 74.2676 323.733 73.8737 323.238 73.3789C322.75 72.8776 322.362 72.2949 322.076 71.6309C321.789 70.9668 321.646 70.2572 321.646 69.502C321.646 68.7467 321.789 68.0371 322.076 67.373C322.362 66.709 322.75 66.1296 323.238 65.6348C323.733 65.1335 324.312 64.7396 324.976 64.4531C325.64 64.1602 326.35 64.0104 327.105 64.0039H331.646C332.128 64.0039 332.58 64.0951 333.004 64.2773C333.433 64.4596 333.804 64.7103 334.117 65.0293C334.436 65.3418 334.686 65.7096 334.869 66.1328C335.051 66.556 335.142 67.0117 335.142 67.5ZM331.646 69.0039C331.848 69.0039 332.04 68.9648 332.222 68.8867C332.405 68.8086 332.564 68.7012 332.701 68.5645C332.837 68.4277 332.945 68.2682 333.023 68.0859C333.101 67.9036 333.14 67.7083 333.14 67.5C333.14 67.2982 333.101 67.1061 333.023 66.9238C332.945 66.7415 332.837 66.582 332.701 66.4453C332.564 66.3086 332.405 66.2012 332.222 66.123C332.04 66.0384 331.848 65.9961 331.646 65.9961H327.105C326.662 65.9961 326.246 66.0742 325.855 66.2305C325.471 66.3867 325.126 66.6016 324.82 66.875C324.52 67.1419 324.27 67.4609 324.068 67.832C323.873 68.1966 323.746 68.5872 323.687 69.0039H331.646ZM343.172 75H341.17V65.9961H338.172V64.0039H341.17V60H343.172V64.0039H350.174V65.9961H343.172V75ZM366.73 75.498C366.73 75.9863 366.639 76.4421 366.456 76.8652C366.274 77.2884 366.023 77.6595 365.704 77.9785C365.392 78.2975 365.021 78.5482 364.591 78.7305C364.168 78.9128 363.715 79.0039 363.234 79.0039H355.236V77.002H363.234C363.435 77.002 363.627 76.9629 363.81 76.8848C363.992 76.8066 364.152 76.6992 364.288 76.5625C364.425 76.4258 364.532 76.2663 364.611 76.084C364.689 75.9017 364.728 75.7064 364.728 75.498V75H359.23C358.474 75 357.765 74.8568 357.101 74.5703C356.437 74.2773 355.857 73.8835 355.362 73.3887C354.874 72.8874 354.487 72.3047 354.2 71.6406C353.914 70.9701 353.771 70.2572 353.771 69.502V64.0039H355.773V69.502C355.773 69.9837 355.861 70.4362 356.036 70.8594C356.219 71.276 356.466 71.6439 356.779 71.9629C357.091 72.2754 357.456 72.526 357.872 72.7148C358.295 72.8971 358.748 72.9915 359.23 72.998H364.728V64.0039H366.73V75.498Z" fill="#1F1F1F"/>
<path d="M41.1328 36.3906C41.1328 37.7344 40.8828 38.9922 40.3828 40.1641C39.8828 41.3203 39.1953 42.3359 38.3203 43.2109C37.4609 44.0703 36.4453 44.75 35.2734 45.25C34.1172 45.75 32.875 46 31.5469 46H2.34375V41.1953H31.5469C32.2188 41.1953 32.8438 41.0703 33.4219 40.8203C34 40.5703 34.5 40.2266 34.9219 39.7891C35.3594 39.3516 35.7031 38.8438 35.9531 38.2656C36.2031 37.6719 36.3281 37.0469 36.3281 36.3906C36.3281 35.7344 36.2031 35.1172 35.9531 34.5391C35.7031 33.9609 35.3594 33.4531 34.9219 33.0156C34.5 32.5781 34 32.2344 33.4219 31.9844C32.8438 31.7344 32.2188 31.6094 31.5469 31.6094H11.9531C10.6406 31.6094 9.39844 31.3594 8.22656 30.8594C7.05469 30.3594 6.03125 29.6797 5.15625 28.8203C4.29688 27.9453 3.60938 26.9219 3.09375 25.75C2.59375 24.5781 2.34375 23.3281 2.34375 22C2.34375 20.6875 2.59375 19.4453 3.09375 18.2734C3.60938 17.1016 4.29688 16.0859 5.15625 15.2266C6.03125 14.3516 7.05469 13.6641 8.22656 13.1641C9.39844 12.6484 10.6406 12.3906 11.9531 12.3906H38.7422V17.1953H11.9531C11.2969 17.1953 10.6719 17.3203 10.0781 17.5703C9.5 17.8203 8.99219 18.1641 8.55469 18.6016C8.11719 19.0391 7.77344 19.5547 7.52344 20.1484C7.27344 20.7266 7.14844 21.3438 7.14844 22C7.14844 22.6562 7.27344 23.2812 7.52344 23.875C7.77344 24.4531 8.11719 24.9609 8.55469 25.3984C8.99219 25.8359 9.5 26.1797 10.0781 26.4297C10.6719 26.6797 11.2969 26.8047 11.9531 26.8047H31.5469C32.875 26.8047 34.1172 27.0625 35.2734 27.5781C36.4453 28.0781 37.4609 28.7656 38.3203 29.6406C39.1953 30.5 39.8828 31.5156 40.3828 32.6875C40.8828 33.8438 41.1328 35.0781 41.1328 36.3906ZM78.795 46H60.795C58.9825 46 57.2794 45.6562 55.6856 44.9688C54.0919 44.2656 52.7012 43.3203 51.5137 42.1328C50.3419 40.9297 49.4122 39.5312 48.7247 37.9375C48.0372 36.3281 47.6934 34.6172 47.6934 32.8047V19.6094H52.4981V32.8047C52.4981 33.9609 52.7091 35.0469 53.1309 36.0625C53.5684 37.0625 54.1622 37.9453 54.9122 38.7109C55.6622 39.4609 56.5372 40.0625 57.5372 40.5156C58.5528 40.9531 59.6387 41.1797 60.795 41.1953H73.9903V19.6094H78.795V46ZM113.856 24.3906H95.8556C95.3556 24.3906 94.8869 24.4922 94.4494 24.6953C94.0119 24.8828 93.6291 25.1406 93.3009 25.4688C92.9728 25.7969 92.715 26.1797 92.5275 26.6172C92.34 27.0547 92.2462 27.5156 92.2462 28V46H87.4416V28C87.4416 26.8281 87.6603 25.7344 88.0978 24.7188C88.5353 23.7031 89.1369 22.8203 89.9025 22.0703C90.6681 21.3047 91.5587 20.7031 92.5744 20.2656C93.59 19.8281 94.6837 19.6094 95.8556 19.6094H113.856V24.3906ZM146.057 14.8047H132.768C131.612 14.8203 130.526 15.0547 129.51 15.5078C128.51 15.9453 127.635 16.5469 126.885 17.3125C126.135 18.0625 125.541 18.9453 125.104 19.9609C124.666 20.9766 124.448 22.0547 124.448 23.1953V46H119.643V22C119.643 20.3125 120.002 18.7422 120.721 17.2891C121.455 15.8203 122.424 14.5547 123.627 13.4922C124.846 12.4141 126.244 11.5703 127.823 10.9609C129.401 10.3359 131.049 10.0156 132.768 10H146.057V14.8047ZM146.057 26.8047H126.862V22H146.057V26.8047ZM181.657 47.1953C181.657 48.3672 181.43 49.4609 180.977 50.4766C180.539 51.4922 179.938 52.3828 179.172 53.1484C178.422 53.9141 177.532 54.5156 176.5 54.9531C175.485 55.3906 174.399 55.6094 173.242 55.6094H154.047V50.8047H173.242C173.727 50.8047 174.188 50.7109 174.625 50.5234C175.063 50.3359 175.446 50.0781 175.774 49.75C176.102 49.4219 176.36 49.0391 176.547 48.6016C176.75 48.1641 176.852 47.6953 176.852 47.1953V24.3906H163.657C162.5 24.4062 161.414 24.6406 160.399 25.0938C159.399 25.5312 158.524 26.1328 157.774 26.8984C157.024 27.6484 156.43 28.5312 155.992 29.5469C155.571 30.5625 155.36 31.6484 155.36 32.8047C155.36 33.9609 155.571 35.0469 155.992 36.0625C156.43 37.0625 157.024 37.9453 157.774 38.7109C158.524 39.4609 159.399 40.0625 160.399 40.5156C161.414 40.9531 162.5 41.1797 163.657 41.1953H174.461V46H163.657C161.844 45.9844 160.141 45.6328 158.547 44.9453C156.953 44.2422 155.563 43.2969 154.375 42.1094C153.203 40.9062 152.274 39.5078 151.586 37.9141C150.899 36.3203 150.555 34.6172 150.555 32.8047C150.555 30.9922 150.899 29.2891 151.586 27.6953C152.274 26.1016 153.203 24.7109 154.375 23.5234C155.563 22.3203 156.953 21.375 158.547 20.6875C160.141 19.9844 161.844 19.625 163.657 19.6094H181.657V47.1953ZM216.694 24.3906H198.694C198.194 24.3906 197.725 24.4922 197.288 24.6953C196.85 24.8828 196.467 25.1406 196.139 25.4688C195.811 25.7969 195.553 26.1797 195.366 26.6172C195.178 27.0547 195.084 27.5156 195.084 28V46H190.28V28C190.28 26.8281 190.498 25.7344 190.936 24.7188C191.373 23.7031 191.975 22.8203 192.741 22.0703C193.506 21.3047 194.397 20.7031 195.413 20.2656C196.428 19.8281 197.522 19.6094 198.694 19.6094H216.694V24.3906ZM254.075 32.8047C254.075 34.6172 253.731 36.3203 253.043 37.9141C252.356 39.5078 251.418 40.9062 250.231 42.1094C249.059 43.2969 247.676 44.2422 246.083 44.9453C244.489 45.6328 242.786 45.9844 240.973 46H233.59C231.778 45.9844 230.075 45.6328 228.481 44.9453C226.887 44.2422 225.497 43.2969 224.309 42.1094C223.137 40.9062 222.208 39.5078 221.52 37.9141C220.833 36.3203 220.489 34.6172 220.489 32.8047C220.489 30.9922 220.833 29.2891 221.52 27.6953C222.208 26.0859 223.137 24.6875 224.309 23.5C225.497 22.2969 226.887 21.3516 228.481 20.6641C230.075 19.9609 231.778 19.6094 233.59 19.6094H240.973C242.176 19.6094 243.34 19.7656 244.465 20.0781C245.59 20.3906 246.637 20.8359 247.606 21.4141C248.575 21.9922 249.458 22.6875 250.254 23.5C251.051 24.2969 251.731 25.1875 252.293 26.1719C252.856 27.1406 253.293 28.1875 253.606 29.3125C253.918 30.4375 254.075 31.6016 254.075 32.8047ZM249.293 32.8047C249.293 31.6484 249.075 30.5625 248.637 29.5469C248.2 28.5312 247.606 27.6484 246.856 26.8984C246.106 26.1328 245.223 25.5312 244.208 25.0938C243.208 24.6406 242.129 24.4062 240.973 24.3906H233.59C232.434 24.4062 231.348 24.6406 230.333 25.0938C229.333 25.5312 228.458 26.1328 227.708 26.8984C226.958 27.6484 226.364 28.5312 225.926 29.5469C225.504 30.5625 225.293 31.6484 225.293 32.8047C225.293 33.9609 225.504 35.0469 225.926 36.0625C226.364 37.0781 226.958 37.9688 227.708 38.7344C228.458 39.4844 229.333 40.0859 230.333 40.5391C231.348 40.9766 232.434 41.1953 233.59 41.1953H240.973C242.129 41.1953 243.208 40.9766 244.208 40.5391C245.223 40.0859 246.106 39.4844 246.856 38.7344C247.606 37.9688 248.2 37.0781 248.637 36.0625C249.075 35.0469 249.293 33.9609 249.293 32.8047ZM293.167 32.8047C293.167 34.6172 292.823 36.3203 292.135 37.9141C291.448 39.5078 290.51 40.9062 289.323 42.1094C288.151 43.2969 286.768 44.2422 285.174 44.9453C283.581 45.6328 281.878 45.9844 280.065 46H272.682C270.87 45.9844 269.167 45.6328 267.573 44.9453C265.979 44.2422 264.588 43.2969 263.401 42.1094C262.229 40.9062 261.299 39.5078 260.612 37.9141C259.924 36.3203 259.581 34.6172 259.581 32.8047C259.581 30.9922 259.924 29.2891 260.612 27.6953C261.299 26.0859 262.229 24.6875 263.401 23.5C264.588 22.2969 265.979 21.3516 267.573 20.6641C269.167 19.9609 270.87 19.6094 272.682 19.6094H280.065C281.268 19.6094 282.432 19.7656 283.557 20.0781C284.682 20.3906 285.729 20.8359 286.698 21.4141C287.667 21.9922 288.549 22.6875 289.346 23.5C290.143 24.2969 290.823 25.1875 291.385 26.1719C291.948 27.1406 292.385 28.1875 292.698 29.3125C293.01 30.4375 293.167 31.6016 293.167 32.8047ZM288.385 32.8047C288.385 31.6484 288.167 30.5625 287.729 29.5469C287.292 28.5312 286.698 27.6484 285.948 26.8984C285.198 26.1328 284.315 25.5312 283.299 25.0938C282.299 24.6406 281.221 24.4062 280.065 24.3906H272.682C271.526 24.4062 270.44 24.6406 269.424 25.0938C268.424 25.5312 267.549 26.1328 266.799 26.8984C266.049 27.6484 265.456 28.5312 265.018 29.5469C264.596 30.5625 264.385 31.6484 264.385 32.8047C264.385 33.9609 264.596 35.0469 265.018 36.0625C265.456 37.0781 266.049 37.9688 266.799 38.7344C267.549 39.4844 268.424 40.0859 269.424 40.5391C270.44 40.9766 271.526 41.1953 272.682 41.1953H280.065C281.221 41.1953 282.299 40.9766 283.299 40.5391C284.315 40.0859 285.198 39.4844 285.948 38.7344C286.698 37.9688 287.292 37.0781 287.729 36.0625C288.167 35.0469 288.385 33.9609 288.385 32.8047ZM331.274 19.6094L316.696 46H311.212L296.727 19.6094H302.329L313.954 41.0078L325.672 19.6094H331.274ZM367.155 28C367.155 29.1719 366.936 30.2656 366.499 31.2812C366.061 32.2969 365.46 33.1875 364.694 33.9531C363.944 34.7031 363.053 35.2969 362.022 35.7344C361.007 36.1719 359.921 36.3906 358.764 36.3906H340.366C340.71 37.0938 341.139 37.7422 341.655 38.3359C342.171 38.9297 342.749 39.4375 343.389 39.8594C344.03 40.2812 344.725 40.6094 345.475 40.8438C346.241 41.0781 347.038 41.1953 347.866 41.1953H363.569V46H347.866C346.053 45.9844 344.35 45.6328 342.757 44.9453C341.163 44.2422 339.772 43.2969 338.585 42.1094C337.413 40.9062 336.483 39.5078 335.796 37.9141C335.108 36.3203 334.764 34.6172 334.764 32.8047C334.764 30.9922 335.108 29.2891 335.796 27.6953C336.483 26.1016 337.413 24.7109 338.585 23.5234C339.772 22.3203 341.163 21.375 342.757 20.6875C344.35 19.9844 346.053 19.625 347.866 19.6094H358.764C359.921 19.6094 361.007 19.8281 362.022 20.2656C363.053 20.7031 363.944 21.3047 364.694 22.0703C365.46 22.8203 366.061 23.7031 366.499 24.7188C366.936 25.7344 367.155 26.8281 367.155 28ZM358.764 31.6094C359.249 31.6094 359.71 31.5156 360.147 31.3281C360.585 31.1406 360.967 30.8828 361.296 30.5547C361.624 30.2266 361.882 29.8438 362.069 29.4062C362.257 28.9688 362.35 28.5 362.35 28C362.35 27.5156 362.257 27.0547 362.069 26.6172C361.882 26.1797 361.624 25.7969 361.296 25.4688C360.967 25.1406 360.585 24.8828 360.147 24.6953C359.71 24.4922 359.249 24.3906 358.764 24.3906H347.866C346.803 24.3906 345.803 24.5781 344.866 24.9531C343.944 25.3281 343.116 25.8438 342.382 26.5C341.663 27.1406 341.061 27.9062 340.577 28.7969C340.108 29.6719 339.803 30.6094 339.663 31.6094H358.764Z" fill="#1F1F1F"/>
</svg>
