<svg width="512" height="512" viewBox="0 0 512 512" fill="none" xmlns="http://www.w3.org/2000/svg">
<path d="M462 66H190C184.477 66 180 70.4766 180 76C180 81.5234 184.477 86 190 86H462C478.543 86 492 99.457 492 116V396C492 412.543 478.543 426 462 426H50C33.457 426 20 412.543 20 396V116C20 99.457 33.457 86 50 86H110C115.523 86 120 81.5234 120 76C120 70.4766 115.523 66 110 66H50C22.4297 66 0 88.4297 0 116V396C0 423.57 22.4297 446 50 446H462C489.57 446 512 423.57 512 396V116C512 88.4297 489.57 66 462 66Z" fill="white"/>
<path d="M150 118C97.0664 118 54 161.066 54 214C54 266.934 97.0664 310 150 310C202.934 310 246 266.934 246 214C246 161.066 202.934 118 150 118ZM106.578 276.32C113.781 259.004 130.809 247.383 150 247.383C169.191 247.383 186.223 259.004 193.426 276.32C181.105 284.93 166.137 290 150 290C133.863 290 118.895 284.93 106.578 276.32ZM131.805 209.188V205.43C131.805 195.395 139.969 187.234 150 187.234C160.031 187.234 168.195 195.395 168.195 205.43V209.188C168.195 219.219 160.031 227.383 150 227.383C139.969 227.383 131.805 219.219 131.805 209.188ZM208.766 262.133C201.992 249.805 191.523 240 179.012 233.988C184.73 227.309 188.195 218.648 188.195 209.188V205.43C188.195 184.367 171.059 167.234 150 167.234C128.941 167.234 111.805 184.367 111.805 205.43V209.188C111.805 218.648 115.27 227.309 120.988 233.988C108.477 239.996 98.0078 249.805 91.2344 262.133C80.4727 249.016 74 232.25 74 214C74 172.094 108.094 138 150 138C191.906 138 226 172.094 226 214C226 232.25 219.527 249.016 208.766 262.133Z" fill="white"/>
<path d="M304 266H448C453.523 266 458 261.523 458 256V176C458 170.477 453.523 166 448 166H304C298.477 166 294 170.477 294 176V256C294 261.523 298.477 266 304 266ZM314 186H438V246H314V186Z" fill="white"/>
<path d="M304 306H448C453.523 306 458 301.523 458 296C458 290.477 453.523 286 448 286H304C298.477 286 294 290.477 294 296C294 301.523 298.477 306 304 306Z" fill="white"/>
<path d="M296.93 343.07C298.789 344.93 301.371 346 304 346C306.629 346 309.211 344.93 311.07 343.07C312.93 341.211 314 338.629 314 336C314 333.371 312.93 330.789 311.07 328.93C309.211 327.07 306.629 326 304 326C301.371 326 298.789 327.07 296.93 328.93C295.07 330.789 294 333.371 294 336C294 338.629 295.07 341.211 296.93 343.07Z" fill="white"/>
<path d="M336.93 328.93C335.07 330.789 334 333.371 334 336C334 338.629 335.07 341.211 336.93 343.07C338.789 344.93 341.371 346 344 346C346.629 346 349.211 344.93 351.07 343.07C352.93 341.211 354 338.629 354 336C354 333.371 352.93 330.789 351.07 328.93C349.211 327.07 346.629 326 344 326C341.371 326 338.789 327.07 336.93 328.93Z" fill="white"/>
<path d="M448 326H384C378.477 326 374 330.477 374 336C374 341.523 378.477 346 384 346H448C453.523 346 458 341.523 458 336C458 330.477 453.523 326 448 326Z" fill="white"/>
<path d="M221.668 340.082C221.668 334.563 217.187 330.082 211.668 330.082H88.332C82.8125 330.082 78.332 334.563 78.332 340.082C78.332 345.605 82.8125 350.082 88.332 350.082H211.668C217.187 350.082 221.668 345.605 221.668 340.082Z" fill="white"/>
<path d="M104.332 370.082C98.8125 370.082 94.332 374.563 94.332 380.082C94.332 385.605 98.8125 390.082 104.332 390.082H195.668C201.187 390.082 205.668 385.605 205.668 380.082C205.668 374.563 201.187 370.082 195.668 370.082H104.332Z" fill="white"/>
<path d="M150 86C152.629 86 155.211 84.9297 157.07 83.0703C158.93 81.2109 160 78.6289 160 76C160 73.3711 158.93 70.7891 157.07 68.9297C155.211 67.0703 152.629 66 150 66C147.371 66 144.789 67.0703 142.93 68.9297C141.07 70.7891 140 73.3711 140 76C140 78.6289 141.07 81.2109 142.93 83.0703C144.789 84.9297 147.371 86 150 86Z" fill="white"/>
</svg>
