<svg width="331" height="78" viewBox="0 0 331 78" fill="none" xmlns="http://www.w3.org/2000/svg">
<path d="M72.3979 64.3848C72.3979 65.0749 72.2645 65.7259 71.9976 66.3379C71.7371 66.9434 71.3791 67.474 70.9233 67.9297C70.4741 68.3789 69.9468 68.7337 69.3413 68.9941C68.7358 69.2546 68.0881 69.3848 67.3979 69.3848H59.3608V67.4121H67.3979C67.8146 67.4121 68.2052 67.334 68.5698 67.1777C68.9344 67.015 69.2502 66.7969 69.5171 66.5234C69.7905 66.25 70.0054 65.931 70.1616 65.5664C70.3179 65.1953 70.396 64.8014 70.396 64.3848C70.396 63.9681 70.3179 63.5775 70.1616 63.2129C70.0054 62.8483 69.7905 62.5326 69.5171 62.2656C69.2502 61.9922 68.9344 61.7773 68.5698 61.6211C68.2052 61.4648 67.8146 61.3867 67.3979 61.3867H58.2378V73.3887H56.2358V59.3848H67.3979C68.0881 59.3848 68.7358 59.5182 69.3413 59.7852C69.9468 60.0456 70.4741 60.4036 70.9233 60.8594C71.3791 61.3086 71.7371 61.8359 71.9976 62.4414C72.2645 63.0469 72.3979 63.6947 72.3979 64.3848ZM87.4593 64.3848H79.9593C79.7509 64.3848 79.5556 64.4271 79.3733 64.5117C79.191 64.5898 79.0315 64.6973 78.8948 64.834C78.7581 64.9707 78.6507 65.1302 78.5726 65.3125C78.4944 65.4948 78.4554 65.6868 78.4554 65.8887V73.3887H76.4534V65.8887C76.4534 65.4004 76.5446 64.9447 76.7269 64.5215C76.9091 64.0983 77.1598 63.7305 77.4788 63.418C77.7978 63.099 78.1689 62.8483 78.5921 62.666C79.0153 62.4837 79.471 62.3926 79.9593 62.3926H87.4593V64.3848ZM104.435 67.8906C104.435 68.6458 104.291 69.3555 104.005 70.0195C103.719 70.6836 103.328 71.2663 102.833 71.7676C102.345 72.2624 101.769 72.6562 101.105 72.9492C100.441 73.2357 99.7309 73.3822 98.9757 73.3887H95.8995C95.1443 73.3822 94.4347 73.2357 93.7706 72.9492C93.1065 72.6562 92.5271 72.2624 92.0323 71.7676C91.544 71.2663 91.1567 70.6836 90.8702 70.0195C90.5838 69.3555 90.4405 68.6458 90.4405 67.8906C90.4405 67.1354 90.5838 66.4258 90.8702 65.7617C91.1567 65.0911 91.544 64.5085 92.0323 64.0137C92.5271 63.5124 93.1065 63.1185 93.7706 62.832C94.4347 62.5391 95.1443 62.3926 95.8995 62.3926H98.9757C99.477 62.3926 99.962 62.4577 100.431 62.5879C100.9 62.7181 101.336 62.9036 101.739 63.1445C102.143 63.3854 102.511 63.6751 102.843 64.0137C103.175 64.3457 103.458 64.7168 103.692 65.127C103.927 65.5306 104.109 65.9668 104.239 66.4355C104.37 66.9043 104.435 67.3893 104.435 67.8906ZM102.442 67.8906C102.442 67.4089 102.351 66.9564 102.169 66.5332C101.987 66.11 101.739 65.7422 101.427 65.4297C101.114 65.1107 100.747 64.86 100.323 64.6777C99.9067 64.4889 99.4575 64.3913 98.9757 64.3848H95.8995C95.4177 64.3913 94.9653 64.4889 94.5421 64.6777C94.1254 64.86 93.7608 65.1107 93.4483 65.4297C93.1358 65.7422 92.8884 66.11 92.7062 66.5332C92.5304 66.9564 92.4425 67.4089 92.4425 67.8906C92.4425 68.3724 92.5304 68.8249 92.7062 69.248C92.8884 69.6712 93.1358 70.0423 93.4483 70.3613C93.7608 70.6738 94.1254 70.9245 94.5421 71.1133C94.9653 71.2956 95.4177 71.3867 95.8995 71.3867H98.9757C99.4575 71.3867 99.9067 71.2956 100.323 71.1133C100.747 70.9245 101.114 70.6738 101.427 70.3613C101.739 70.0423 101.987 69.6712 102.169 69.248C102.351 68.8249 102.442 68.3724 102.442 67.8906ZM112.592 73.3887H110.59V64.3848H107.592V62.3926H110.59V58.3887H112.592V62.3926H119.594V64.3848H112.592V73.3887ZM136.032 65.8887C136.032 66.377 135.941 66.8327 135.758 67.2559C135.576 67.679 135.326 68.0501 135.007 68.3691C134.694 68.6816 134.323 68.929 133.893 69.1113C133.47 69.2936 133.018 69.3848 132.536 69.3848H124.87C125.013 69.6777 125.192 69.9479 125.407 70.1953C125.622 70.4427 125.863 70.6543 126.13 70.8301C126.397 71.0059 126.686 71.1426 126.999 71.2402C127.318 71.3379 127.65 71.3867 127.995 71.3867H134.538V73.3887H127.995C127.24 73.3822 126.53 73.2357 125.866 72.9492C125.202 72.6562 124.622 72.2624 124.128 71.7676C123.639 71.2663 123.252 70.6836 122.966 70.0195C122.679 69.3555 122.536 68.6458 122.536 67.8906C122.536 67.1354 122.679 66.4258 122.966 65.7617C123.252 65.0977 123.639 64.5182 124.128 64.0234C124.622 63.5221 125.202 63.1283 125.866 62.8418C126.53 62.5488 127.24 62.3991 127.995 62.3926H132.536C133.018 62.3926 133.47 62.4837 133.893 62.666C134.323 62.8483 134.694 63.099 135.007 63.418C135.326 63.7305 135.576 64.0983 135.758 64.5215C135.941 64.9447 136.032 65.4004 136.032 65.8887ZM132.536 67.3926C132.738 67.3926 132.93 67.3535 133.112 67.2754C133.294 67.1973 133.454 67.0898 133.591 66.9531C133.727 66.8164 133.835 66.6569 133.913 66.4746C133.991 66.2923 134.03 66.097 134.03 65.8887C134.03 65.6868 133.991 65.4948 133.913 65.3125C133.835 65.1302 133.727 64.9707 133.591 64.834C133.454 64.6973 133.294 64.5898 133.112 64.5117C132.93 64.4271 132.738 64.3848 132.536 64.3848H127.995C127.552 64.3848 127.135 64.4629 126.745 64.6191C126.361 64.7754 126.016 64.9902 125.71 65.2637C125.41 65.5306 125.16 65.8496 124.958 66.2207C124.762 66.5853 124.635 66.9759 124.577 67.3926H132.536ZM151.503 73.3887H144.96C144.205 73.3822 143.496 73.2357 142.832 72.9492C142.167 72.6562 141.588 72.2624 141.093 71.7676C140.605 71.2663 140.218 70.6836 139.931 70.0195C139.645 69.3555 139.501 68.6458 139.501 67.8906C139.501 67.1354 139.645 66.4258 139.931 65.7617C140.218 65.0911 140.605 64.5085 141.093 64.0137C141.588 63.5124 142.167 63.1185 142.832 62.832C143.496 62.5391 144.205 62.3926 144.96 62.3926H151.503V64.3848H144.96C144.479 64.3913 144.026 64.4889 143.603 64.6777C143.186 64.86 142.822 65.1107 142.509 65.4297C142.197 65.7422 141.949 66.11 141.767 66.5332C141.591 66.9564 141.503 67.4089 141.503 67.8906C141.503 68.3724 141.591 68.8249 141.767 69.248C141.949 69.6712 142.197 70.0423 142.509 70.3613C142.822 70.6738 143.186 70.9245 143.603 71.1133C144.026 71.2956 144.479 71.3867 144.96 71.3867H151.503V73.3887ZM159.758 73.3887H157.756V64.3848H154.758V62.3926H157.756V58.3887H159.758V62.3926H166.76V64.3848H159.758V73.3887ZM173.032 59.8926C173.032 60.1009 172.993 60.2962 172.915 60.4785C172.837 60.6543 172.73 60.8105 172.593 60.9473C172.456 61.084 172.297 61.1914 172.114 61.2695C171.932 61.3477 171.74 61.3867 171.538 61.3867C171.33 61.3867 171.135 61.3477 170.952 61.2695C170.77 61.1914 170.61 61.084 170.474 60.9473C170.337 60.8105 170.23 60.6543 170.151 60.4785C170.073 60.2962 170.034 60.1009 170.034 59.8926C170.034 59.6908 170.073 59.4987 170.151 59.3164C170.23 59.1341 170.337 58.9746 170.474 58.8379C170.61 58.7012 170.77 58.5938 170.952 58.5156C171.135 58.431 171.33 58.3887 171.538 58.3887C171.74 58.3887 171.932 58.431 172.114 58.5156C172.297 58.5938 172.456 58.7012 172.593 58.8379C172.73 58.9746 172.837 59.1341 172.915 59.3164C172.993 59.4987 173.032 59.6908 173.032 59.8926ZM172.534 73.3887H170.532V62.3926H172.534V73.3887ZM190.916 67.8906C190.916 68.6458 190.773 69.3555 190.486 70.0195C190.2 70.6836 189.809 71.2663 189.314 71.7676C188.826 72.2624 188.25 72.6562 187.586 72.9492C186.922 73.2357 186.212 73.3822 185.457 73.3887H182.381C181.626 73.3822 180.916 73.2357 180.252 72.9492C179.588 72.6562 179.008 72.2624 178.514 71.7676C178.025 71.2663 177.638 70.6836 177.351 70.0195C177.065 69.3555 176.922 68.6458 176.922 67.8906C176.922 67.1354 177.065 66.4258 177.351 65.7617C177.638 65.0911 178.025 64.5085 178.514 64.0137C179.008 63.5124 179.588 63.1185 180.252 62.832C180.916 62.5391 181.626 62.3926 182.381 62.3926H185.457C185.958 62.3926 186.443 62.4577 186.912 62.5879C187.381 62.7181 187.817 62.9036 188.221 63.1445C188.624 63.3854 188.992 63.6751 189.324 64.0137C189.656 64.3457 189.939 64.7168 190.174 65.127C190.408 65.5306 190.59 65.9668 190.721 66.4355C190.851 66.9043 190.916 67.3893 190.916 67.8906ZM188.924 67.8906C188.924 67.4089 188.833 66.9564 188.65 66.5332C188.468 66.11 188.221 65.7422 187.908 65.4297C187.596 65.1107 187.228 64.86 186.805 64.6777C186.388 64.4889 185.939 64.3913 185.457 64.3848H182.381C181.899 64.3913 181.447 64.4889 181.023 64.6777C180.607 64.86 180.242 65.1107 179.93 65.4297C179.617 65.7422 179.37 66.11 179.187 66.5332C179.012 66.9564 178.924 67.4089 178.924 67.8906C178.924 68.3724 179.012 68.8249 179.187 69.248C179.37 69.6712 179.617 70.0423 179.93 70.3613C180.242 70.6738 180.607 70.9245 181.023 71.1133C181.447 71.2956 181.899 71.3867 182.381 71.3867H185.457C185.939 71.3867 186.388 71.2956 186.805 71.1133C187.228 70.9245 187.596 70.6738 187.908 70.3613C188.221 70.0423 188.468 69.6712 188.65 69.248C188.833 68.8249 188.924 68.3724 188.924 67.8906ZM197.305 73.3887H195.303V62.3926H202.803C203.559 62.3926 204.268 62.5391 204.932 62.832C205.596 63.1185 206.176 63.5124 206.671 64.0137C207.165 64.5085 207.556 65.0911 207.842 65.7617C208.129 66.4258 208.272 67.1354 208.272 67.8906V73.3887H206.27V67.8906C206.27 67.4089 206.179 66.9564 205.997 66.5332C205.814 66.11 205.567 65.7422 205.255 65.4297C204.942 65.1107 204.574 64.86 204.151 64.6777C203.734 64.4889 203.285 64.3913 202.803 64.3848H197.305V73.3887ZM238.571 69.3848C238.571 69.9447 238.466 70.4688 238.258 70.957C238.05 71.4388 237.763 71.862 237.399 72.2266C237.041 72.5846 236.617 72.8678 236.129 73.0762C235.647 73.2845 235.13 73.3887 234.576 73.3887H222.408V71.3867H234.576C234.856 71.3867 235.117 71.3346 235.358 71.2305C235.599 71.1263 235.807 70.9831 235.983 70.8008C236.165 70.6185 236.308 70.4069 236.412 70.166C236.517 69.9186 236.569 69.6582 236.569 69.3848C236.569 69.1113 236.517 68.8542 236.412 68.6133C236.308 68.3724 236.165 68.1608 235.983 67.9785C235.807 67.7962 235.599 67.653 235.358 67.5488C235.117 67.4447 234.856 67.3926 234.576 67.3926H226.412C225.866 67.3926 225.348 67.2884 224.86 67.0801C224.371 66.8717 223.945 66.5885 223.58 66.2305C223.222 65.8659 222.936 65.4395 222.721 64.9512C222.513 64.4629 222.408 63.9421 222.408 63.3887C222.408 62.8418 222.513 62.3242 222.721 61.8359C222.936 61.3477 223.222 60.9245 223.58 60.5664C223.945 60.2018 224.371 59.9154 224.86 59.707C225.348 59.4922 225.866 59.3848 226.412 59.3848H237.575V61.3867H226.412C226.139 61.3867 225.879 61.4388 225.631 61.543C225.39 61.6471 225.179 61.7904 224.996 61.9727C224.814 62.1549 224.671 62.3698 224.567 62.6172C224.463 62.8581 224.41 63.1152 224.41 63.3887C224.41 63.6621 224.463 63.9225 224.567 64.1699C224.671 64.4108 224.814 64.6224 224.996 64.8047C225.179 64.987 225.39 65.1302 225.631 65.2344C225.879 65.3385 226.139 65.3906 226.412 65.3906H234.576C235.13 65.3906 235.647 65.498 236.129 65.7129C236.617 65.9212 237.041 66.2077 237.399 66.5723C237.763 66.9303 238.05 67.3535 238.258 67.8418C238.466 68.3236 238.571 68.8379 238.571 69.3848ZM256.181 67.8906C256.181 68.6458 256.038 69.3555 255.751 70.0195C255.465 70.6836 255.074 71.2663 254.579 71.7676C254.091 72.2624 253.515 72.6562 252.851 72.9492C252.187 73.2357 251.477 73.3822 250.722 73.3887H247.646C246.89 73.3822 246.181 73.2357 245.517 72.9492C244.853 72.6562 244.273 72.2624 243.778 71.7676C243.29 71.2663 242.903 70.6836 242.616 70.0195C242.33 69.3555 242.187 68.6458 242.187 67.8906C242.187 67.1354 242.33 66.4258 242.616 65.7617C242.903 65.0911 243.29 64.5085 243.778 64.0137C244.273 63.5124 244.853 63.1185 245.517 62.832C246.181 62.5391 246.89 62.3926 247.646 62.3926H250.722C251.223 62.3926 251.708 62.4577 252.177 62.5879C252.646 62.7181 253.082 62.9036 253.485 63.1445C253.889 63.3854 254.257 63.6751 254.589 64.0137C254.921 64.3457 255.204 64.7168 255.439 65.127C255.673 65.5306 255.855 65.9668 255.985 66.4355C256.116 66.9043 256.181 67.3893 256.181 67.8906ZM254.189 67.8906C254.189 67.4089 254.097 66.9564 253.915 66.5332C253.733 66.11 253.485 65.7422 253.173 65.4297C252.86 65.1107 252.493 64.86 252.069 64.6777C251.653 64.4889 251.204 64.3913 250.722 64.3848H247.646C247.164 64.3913 246.711 64.4889 246.288 64.6777C245.872 64.86 245.507 65.1107 245.194 65.4297C244.882 65.7422 244.635 66.11 244.452 66.5332C244.276 66.9564 244.189 67.4089 244.189 67.8906C244.189 68.3724 244.276 68.8249 244.452 69.248C244.635 69.6712 244.882 70.0423 245.194 70.3613C245.507 70.6738 245.872 70.9245 246.288 71.1133C246.711 71.2956 247.164 71.3867 247.646 71.3867H250.722C251.204 71.3867 251.653 71.2956 252.069 71.1133C252.493 70.9245 252.86 70.6738 253.173 70.3613C253.485 70.0423 253.733 69.6712 253.915 69.248C254.097 68.8249 254.189 68.3724 254.189 67.8906ZM271.877 73.3887H265.334C264.579 73.3822 263.869 73.2357 263.205 72.9492C262.541 72.6562 261.961 72.2624 261.467 71.7676C260.978 71.2663 260.591 70.6836 260.305 70.0195C260.018 69.3555 259.875 68.6458 259.875 67.8906C259.875 67.1354 260.018 66.4258 260.305 65.7617C260.591 65.0911 260.978 64.5085 261.467 64.0137C261.961 63.5124 262.541 63.1185 263.205 62.832C263.869 62.5391 264.579 62.3926 265.334 62.3926H271.877V64.3848H265.334C264.852 64.3913 264.4 64.4889 263.976 64.6777C263.56 64.86 263.195 65.1107 262.883 65.4297C262.57 65.7422 262.323 66.11 262.141 66.5332C261.965 66.9564 261.877 67.4089 261.877 67.8906C261.877 68.3724 261.965 68.8249 262.141 69.248C262.323 69.6712 262.57 70.0423 262.883 70.3613C263.195 70.6738 263.56 70.9245 263.976 71.1133C264.4 71.2956 264.852 71.3867 265.334 71.3867H271.877V73.3887ZM278.764 59.8926C278.764 60.1009 278.725 60.2962 278.647 60.4785C278.569 60.6543 278.462 60.8105 278.325 60.9473C278.188 61.084 278.029 61.1914 277.846 61.2695C277.664 61.3477 277.472 61.3867 277.27 61.3867C277.062 61.3867 276.867 61.3477 276.684 61.2695C276.502 61.1914 276.342 61.084 276.206 60.9473C276.069 60.8105 275.962 60.6543 275.883 60.4785C275.805 60.2962 275.766 60.1009 275.766 59.8926C275.766 59.6908 275.805 59.4987 275.883 59.3164C275.962 59.1341 276.069 58.9746 276.206 58.8379C276.342 58.7012 276.502 58.5938 276.684 58.5156C276.867 58.431 277.062 58.3887 277.27 58.3887C277.472 58.3887 277.664 58.431 277.846 58.5156C278.029 58.5938 278.188 58.7012 278.325 58.8379C278.462 58.9746 278.569 59.1341 278.647 59.3164C278.725 59.4987 278.764 59.6908 278.764 59.8926ZM278.266 73.3887H276.264V62.3926H278.266V73.3887ZM296.15 65.8887C296.15 66.377 296.059 66.8327 295.876 67.2559C295.694 67.679 295.444 68.0501 295.125 68.3691C294.812 68.6816 294.441 68.929 294.011 69.1113C293.588 69.2936 293.136 69.3848 292.654 69.3848H284.988C285.131 69.6777 285.31 69.9479 285.525 70.1953C285.74 70.4427 285.981 70.6543 286.248 70.8301C286.514 71.0059 286.804 71.1426 287.117 71.2402C287.436 71.3379 287.768 71.3867 288.113 71.3867H294.656V73.3887H288.113C287.358 73.3822 286.648 73.2357 285.984 72.9492C285.32 72.6562 284.74 72.2624 284.246 71.7676C283.757 71.2663 283.37 70.6836 283.083 70.0195C282.797 69.3555 282.654 68.6458 282.654 67.8906C282.654 67.1354 282.797 66.4258 283.083 65.7617C283.37 65.0977 283.757 64.5182 284.246 64.0234C284.74 63.5221 285.32 63.1283 285.984 62.8418C286.648 62.5488 287.358 62.3991 288.113 62.3926H292.654C293.136 62.3926 293.588 62.4837 294.011 62.666C294.441 62.8483 294.812 63.099 295.125 63.418C295.444 63.7305 295.694 64.0983 295.876 64.5215C296.059 64.9447 296.15 65.4004 296.15 65.8887ZM292.654 67.3926C292.856 67.3926 293.048 67.3535 293.23 67.2754C293.412 67.1973 293.572 67.0898 293.708 66.9531C293.845 66.8164 293.953 66.6569 294.031 66.4746C294.109 66.2923 294.148 66.097 294.148 65.8887C294.148 65.6868 294.109 65.4948 294.031 65.3125C293.953 65.1302 293.845 64.9707 293.708 64.834C293.572 64.6973 293.412 64.5898 293.23 64.5117C293.048 64.4271 292.856 64.3848 292.654 64.3848H288.113C287.67 64.3848 287.253 64.4629 286.863 64.6191C286.479 64.7754 286.134 64.9902 285.828 65.2637C285.528 65.5306 285.278 65.8496 285.076 66.2207C284.88 66.5853 284.753 66.9759 284.695 67.3926H292.654ZM304.18 73.3887H302.178V64.3848H299.18V62.3926H302.178V58.3887H304.18V62.3926H311.182V64.3848H304.18V73.3887ZM327.737 73.8867C327.737 74.375 327.646 74.8307 327.464 75.2539C327.282 75.6771 327.031 76.0482 326.712 76.3672C326.4 76.6862 326.028 76.9368 325.599 77.1191C325.176 77.3014 324.723 77.3926 324.241 77.3926H316.243V75.3906H324.241C324.443 75.3906 324.635 75.3516 324.817 75.2734C325 75.1953 325.159 75.0879 325.296 74.9512C325.433 74.8145 325.54 74.6549 325.618 74.4727C325.696 74.2904 325.735 74.0951 325.735 73.8867V73.3887H320.237C319.482 73.3887 318.773 73.2454 318.108 72.959C317.444 72.666 316.865 72.2721 316.37 71.7773C315.882 71.276 315.495 70.6934 315.208 70.0293C314.922 69.3587 314.778 68.6458 314.778 67.8906V62.3926H316.78V67.8906C316.78 68.3724 316.868 68.8249 317.044 69.248C317.226 69.6647 317.474 70.0326 317.786 70.3516C318.099 70.6641 318.463 70.9147 318.88 71.1035C319.303 71.2858 319.756 71.3802 320.237 71.3867H325.735V62.3926H327.737V73.8867Z" fill="#1F1F1F"/>
<path d="M41.876 36.7793C41.876 38.123 41.626 39.3809 41.126 40.5527C40.626 41.709 39.9385 42.7246 39.0635 43.5996C38.2041 44.459 37.1885 45.1387 36.0166 45.6387C34.8604 46.1387 33.6182 46.3887 32.29 46.3887H3.08691V41.584H32.29C32.9619 41.584 33.5869 41.459 34.165 41.209C34.7432 40.959 35.2432 40.6152 35.665 40.1777C36.1025 39.7402 36.4463 39.2324 36.6963 38.6543C36.9463 38.0605 37.0713 37.4355 37.0713 36.7793C37.0713 36.123 36.9463 35.5059 36.6963 34.9277C36.4463 34.3496 36.1025 33.8418 35.665 33.4043C35.2432 32.9668 34.7432 32.623 34.165 32.373C33.5869 32.123 32.9619 31.998 32.29 31.998H12.6963C11.3838 31.998 10.1416 31.748 8.96973 31.248C7.79785 30.748 6.77441 30.0684 5.89941 29.209C5.04004 28.334 4.35254 27.3105 3.83691 26.1387C3.33691 24.9668 3.08691 23.7168 3.08691 22.3887C3.08691 21.0762 3.33691 19.834 3.83691 18.6621C4.35254 17.4902 5.04004 16.4746 5.89941 15.6152C6.77441 14.7402 7.79785 14.0527 8.96973 13.5527C10.1416 13.0371 11.3838 12.7793 12.6963 12.7793H39.4854V17.584H12.6963C12.04 17.584 11.415 17.709 10.8213 17.959C10.2432 18.209 9.73535 18.5527 9.29785 18.9902C8.86035 19.4277 8.5166 19.9434 8.2666 20.5371C8.0166 21.1152 7.8916 21.7324 7.8916 22.3887C7.8916 23.0449 8.0166 23.6699 8.2666 24.2637C8.5166 24.8418 8.86035 25.3496 9.29785 25.7871C9.73535 26.2246 10.2432 26.5684 10.8213 26.8184C11.415 27.0684 12.04 27.1934 12.6963 27.1934H32.29C33.6182 27.1934 34.8604 27.4512 36.0166 27.9668C37.1885 28.4668 38.2041 29.1543 39.0635 30.0293C39.9385 30.8887 40.626 31.9043 41.126 33.0762C41.626 34.2324 41.876 35.4668 41.876 36.7793ZM79.5382 46.3887H61.5382C59.7257 46.3887 58.0225 46.0449 56.4288 45.3574C54.835 44.6543 53.4444 43.709 52.2569 42.5215C51.085 41.3184 50.1553 39.9199 49.4678 38.3262C48.7803 36.7168 48.4366 35.0059 48.4366 33.1934V19.998H53.2413V33.1934C53.2413 34.3496 53.4522 35.4355 53.8741 36.4512C54.3116 37.4512 54.9053 38.334 55.6553 39.0996C56.4053 39.8496 57.2803 40.4512 58.2803 40.9043C59.296 41.3418 60.3819 41.5684 61.5382 41.584H74.7335V19.998H79.5382V46.3887ZM114.599 24.7793H96.5988C96.0988 24.7793 95.63 24.8809 95.1925 25.084C94.755 25.2715 94.3722 25.5293 94.0441 25.8574C93.716 26.1855 93.4582 26.5684 93.2707 27.0059C93.0832 27.4434 92.9894 27.9043 92.9894 28.3887V46.3887H88.1847V28.3887C88.1847 27.2168 88.4035 26.123 88.841 25.1074C89.2785 24.0918 89.88 23.209 90.6457 22.459C91.4113 21.6934 92.3019 21.0918 93.3175 20.6543C94.3332 20.2168 95.4269 19.998 96.5988 19.998H114.599V24.7793ZM146.8 15.1934H133.511C132.355 15.209 131.269 15.4434 130.253 15.8965C129.253 16.334 128.378 16.9355 127.628 17.7012C126.878 18.4512 126.284 19.334 125.847 20.3496C125.409 21.3652 125.191 22.4434 125.191 23.584V46.3887H120.386V22.3887C120.386 20.7012 120.745 19.1309 121.464 17.6777C122.198 16.209 123.167 14.9434 124.37 13.8809C125.589 12.8027 126.988 11.959 128.566 11.3496C130.144 10.7246 131.792 10.4043 133.511 10.3887H146.8V15.1934ZM146.8 27.1934H127.605V22.3887H146.8V27.1934ZM184.087 33.1934C184.087 35.0059 183.743 36.709 183.056 38.3027C182.368 39.8965 181.431 41.2949 180.243 42.498C179.056 43.6855 177.665 44.6309 176.072 45.334C174.478 46.0215 172.775 46.373 170.962 46.3887H152.962V10.3887H157.767V41.584H170.962C172.118 41.584 173.197 41.3652 174.197 40.9277C175.212 40.4746 176.095 39.873 176.845 39.123C177.595 38.3574 178.189 37.4668 178.626 36.4512C179.064 35.4355 179.283 34.3496 179.283 33.1934C179.283 32.0371 179.064 30.9512 178.626 29.9355C178.189 28.9199 177.595 28.0371 176.845 27.2871C176.095 26.5215 175.212 25.9199 174.197 25.4824C173.197 25.0293 172.118 24.7949 170.962 24.7793H160.181V19.998H170.962C172.775 19.998 174.478 20.3496 176.072 21.0527C177.665 21.7402 179.056 22.6855 180.243 23.8887C181.431 25.0762 182.368 26.4746 183.056 28.084C183.743 29.6777 184.087 31.3809 184.087 33.1934ZM217.437 24.7793H199.437C198.937 24.7793 198.468 24.8809 198.031 25.084C197.593 25.2715 197.21 25.5293 196.882 25.8574C196.554 26.1855 196.296 26.5684 196.109 27.0059C195.921 27.4434 195.828 27.9043 195.828 28.3887V46.3887H191.023V28.3887C191.023 27.2168 191.242 26.123 191.679 25.1074C192.117 24.0918 192.718 23.209 193.484 22.459C194.249 21.6934 195.14 21.0918 196.156 20.6543C197.171 20.2168 198.265 19.998 199.437 19.998H217.437V24.7793ZM253.623 28.3887C253.623 29.5605 253.404 30.6543 252.966 31.6699C252.529 32.6855 251.927 33.5762 251.162 34.3418C250.412 35.0918 249.521 35.6855 248.49 36.123C247.474 36.5605 246.388 36.7793 245.232 36.7793H226.833C227.177 37.4824 227.607 38.1309 228.123 38.7246C228.638 39.3184 229.216 39.8262 229.857 40.248C230.498 40.6699 231.193 40.998 231.943 41.2324C232.708 41.4668 233.505 41.584 234.333 41.584H250.037V46.3887H234.333C232.521 46.373 230.818 46.0215 229.224 45.334C227.63 44.6309 226.24 43.6855 225.052 42.498C223.88 41.2949 222.951 39.8965 222.263 38.3027C221.576 36.709 221.232 35.0059 221.232 33.1934C221.232 31.3809 221.576 29.6777 222.263 28.084C222.951 26.4902 223.88 25.0996 225.052 23.9121C226.24 22.709 227.63 21.7637 229.224 21.0762C230.818 20.373 232.521 20.0137 234.333 19.998H245.232C246.388 19.998 247.474 20.2168 248.49 20.6543C249.521 21.0918 250.412 21.6934 251.162 22.459C251.927 23.209 252.529 24.0918 252.966 25.1074C253.404 26.123 253.623 27.2168 253.623 28.3887ZM245.232 31.998C245.716 31.998 246.177 31.9043 246.615 31.7168C247.052 31.5293 247.435 31.2715 247.763 30.9434C248.091 30.6152 248.349 30.2324 248.537 29.7949C248.724 29.3574 248.818 28.8887 248.818 28.3887C248.818 27.9043 248.724 27.4434 248.537 27.0059C248.349 26.5684 248.091 26.1855 247.763 25.8574C247.435 25.5293 247.052 25.2715 246.615 25.084C246.177 24.8809 245.716 24.7793 245.232 24.7793H234.333C233.271 24.7793 232.271 24.9668 231.333 25.3418C230.412 25.7168 229.583 26.2324 228.849 26.8887C228.13 27.5293 227.529 28.2949 227.044 29.1855C226.576 30.0605 226.271 30.998 226.13 31.998H245.232ZM290.23 46.3887H266.23C265.058 46.3887 263.964 46.1699 262.949 45.7324C261.933 45.2949 261.043 44.7012 260.277 43.9512C259.511 43.1855 258.91 42.2949 258.472 41.2793C258.035 40.248 257.816 39.1543 257.816 37.998C257.816 36.8262 258.035 35.7324 258.472 34.7168C258.91 33.7012 259.511 32.8105 260.277 32.0449C261.043 31.2793 261.933 30.6777 262.949 30.2402C263.964 29.8027 265.058 29.584 266.23 29.584H283.011V34.3887H266.23C265.73 34.3887 265.261 34.4902 264.824 34.6934C264.386 34.8809 264.003 35.1387 263.675 35.4668C263.347 35.7949 263.089 36.1777 262.902 36.6152C262.714 37.0527 262.621 37.5137 262.621 37.998C262.621 38.498 262.714 38.9668 262.902 39.4043C263.089 39.8262 263.347 40.2012 263.675 40.5293C264.003 40.8574 264.386 41.1152 264.824 41.3027C265.261 41.4902 265.73 41.584 266.23 41.584H285.425V28.3887C285.425 27.9043 285.324 27.4434 285.121 27.0059C284.933 26.5684 284.675 26.1855 284.347 25.8574C284.019 25.5293 283.636 25.2715 283.199 25.084C282.761 24.8809 282.3 24.7793 281.816 24.7793H262.621V19.998H281.816C282.988 19.998 284.082 20.2168 285.097 20.6543C286.113 21.0918 287.003 21.6934 287.769 22.459C288.535 23.209 289.136 24.0918 289.574 25.1074C290.011 26.123 290.23 27.2168 290.23 28.3887V46.3887ZM330.142 46.3887H323.275L309.259 35.1152L303.681 39.6621V46.3887H298.877V10.3887H303.681V34.5762L321.166 19.998H327.681L312.752 32.2324L330.142 46.3887Z" fill="#1F1F1F"/>
</svg>
